<svg width="16" height="16" viewBox="0 0 16 16" fill="none" xmlns="http://www.w3.org/2000/svg">
  <title>Spenicle Favicon 16px</title>
  <!-- Background with rounded corners optimized for 16px -->
  <rect width="16" height="16" rx="3" fill="#e07a5f"/>
  
  <!-- Lightning bolt simplified for 16px clarity -->
  <g transform="translate(8, 8) scale(0.6) translate(-12, -12)">
    <path d="M4 14a1 1 0 0 1-.78-1.63l9.9-10.2a.5.5 0 0 1 .86.46l-1.92 6.02A1 1 0 0 0 13 10h7a1 1 0 0 1 .78 1.63l-9.9 10.2a.5.5 0 0 1-.86-.46l1.92-6.02A1 1 0 0 0 11 14z" fill="white"/>
  </g>
</svg>
