<svg width="512" height="512" viewBox="0 0 512 512" fill="none" xmlns="http://www.w3.org/2000/svg">
  <title>Spenicle App Icon</title>
  <desc>Spenicle lightning bolt logo for app icon usage</desc>
  
  <!-- Background with rounded corners for app icon -->
  <rect width="512" height="512" rx="80" fill="#e07a5f"/>
  
  <!-- Lightning bolt centered and scaled for app icon -->
  <g transform="translate(256, 256) scale(10) translate(-12, -12)">
    <path d="M4 14a1 1 0 0 1-.78-1.63l9.9-10.2a.5.5 0 0 1 .86.46l-1.92 6.02A1 1 0 0 0 13 10h7a1 1 0 0 1 .78 1.63l-9.9 10.2a.5.5 0 0 1-.86-.46l1.92-6.02A1 1 0 0 0 11 14z" fill="white"/>
  </g>
</svg>
